<svg width="771" height="771" xmlns="http://www.w3.org/2000/svg" xmlns:xlink="http://www.w3.org/1999/xlink" overflow="hidden"><defs><clipPath id="clip0"><rect x="286" y="-38" width="771" height="771"/></clipPath></defs><g clip-path="url(#clip0)" transform="translate(-286 38)"><path d="M670.697 612.531C546.213 612.531 445.822 512.141 445.822 387.656 445.822 263.172 546.213 162.781 670.697 162.781 795.181 162.781 895.572 263.172 895.572 387.656L895.572 387.656C895.572 512.141 795.181 612.531 670.697 612.531ZM861.037 191.694 885.131 167.6C893.966 157.962 893.966 142.703 884.328 133.869 874.691 125.034 860.234 124.231 850.597 133.066L823.291 161.175C784.741 135.475 740.569 119.413 694.791 116.2L694.791 82.4688 767.072 82.4688 767.072 34.2812 574.322 34.2812 574.322 82.4688 646.603 82.4688 646.603 115.397C495.616 128.247 384.784 261.566 397.634 411.75 410.484 561.934 543.803 673.569 693.987 660.719 844.172 647.869 955.806 514.55 942.956 364.366 937.334 298.509 908.422 237.472 861.037 191.694Z" fill="#FF3800"/><path d="M807.228 251.125C775.103 219 732.537 198.922 686.759 195.709L686.759 387.656 654.634 387.656 654.634 195.709C548.622 204.544 469.916 297.706 478.75 403.719 487.584 509.731 580.747 588.438 686.759 580.406 792.772 572.375 871.478 478.409 862.644 372.397 859.431 326.619 839.353 284.053 807.228 251.125Z" fill="#FF3800"/></g></svg>